<svg width="0" height="0" class="hidden">
  <symbol fill="none" xmlns="http://www.w3.org/2000/svg" viewBox="0 0 24 24" id="Discord">
    <path
      d="M20.317 4.15509C18.7873 3.4532 17.147 2.93609 15.4319 2.63991C15.4007 2.6342 15.3695 2.64848 15.3534 2.67705C15.1424 3.05227 14.9087 3.54177 14.7451 3.92651C12.9004 3.65034 11.0652 3.65034 9.25832 3.92651C9.09465 3.53321 8.85248 3.05227 8.64057 2.67705C8.62449 2.64944 8.59328 2.63515 8.56205 2.63991C6.84791 2.93514 5.20756 3.45226 3.67693 4.15509C3.66368 4.1608 3.65233 4.17033 3.64479 4.1827C0.533392 8.83106 -0.31895 13.3652 0.0991801 17.8431C0.101072 17.865 0.11337 17.8859 0.130398 17.8992C2.18321 19.4068 4.17171 20.322 6.12328 20.9286C6.15451 20.9382 6.18761 20.9267 6.20748 20.901C6.66913 20.2706 7.08064 19.6058 7.43348 18.9068C7.4543 18.8659 7.43442 18.8173 7.39186 18.8011C6.73913 18.5535 6.1176 18.2516 5.51973 17.9088C5.47244 17.8812 5.46865 17.8135 5.51216 17.7811C5.63797 17.6869 5.76382 17.5888 5.88396 17.4897C5.90569 17.4716 5.93598 17.4678 5.96153 17.4792C9.88928 19.2725 14.1415 19.2725 18.023 17.4792C18.0485 17.4669 18.0788 17.4707 18.1015 17.4888C18.2216 17.5878 18.3475 17.6869 18.4742 17.7811C18.5177 17.8135 18.5149 17.8812 18.4676 17.9088C17.8697 18.2583 17.2482 18.5535 16.5945 18.8002C16.552 18.8163 16.533 18.8659 16.5538 18.9068C16.9143 19.6049 17.3258 20.2696 17.7789 20.9001C17.7978 20.9267 17.8319 20.9382 17.8631 20.9286C19.8241 20.322 21.8126 19.4068 23.8654 17.8992C23.8834 17.8859 23.8948 17.8659 23.8967 17.844C24.3971 12.6671 23.0585 8.17015 20.3482 4.18365C20.3416 4.17033 20.3303 4.1608 20.317 4.15509ZM8.02002 15.1165C6.8375 15.1165 5.86313 14.0308 5.86313 12.6976C5.86313 11.3643 6.8186 10.2786 8.02002 10.2786C9.23087 10.2786 10.1958 11.3738 10.1769 12.6976C10.1769 14.0308 9.22141 15.1165 8.02002 15.1165ZM15.9947 15.1165C14.8123 15.1165 13.8379 14.0308 13.8379 12.6976C13.8379 11.3643 14.7933 10.2786 15.9947 10.2786C17.2056 10.2786 18.1705 11.3738 18.1516 12.6976C18.1516 14.0308 17.2056 15.1165 15.9947 15.1165Z"
      fill="white"></path>
  </symbol>
  <symbol fill="none" xmlns="http://www.w3.org/2000/svg" viewBox="0 0 24 24" id="Facebook">
    <g clip-path="url(#clip0_1223_17413)">
      <path
        d="M24 12C24 5.37258 18.6274 0 12 0C5.37258 0 0 5.37258 0 12C0 17.9895 4.3882 22.954 10.125 23.8542V15.4688H7.07812V12H10.125V9.35625C10.125 6.34875 11.9166 4.6875 14.6576 4.6875C15.9701 4.6875 17.3438 4.92188 17.3438 4.92188V7.875H15.8306C14.34 7.875 13.875 8.80008 13.875 9.75V12H17.2031L16.6711 15.4688H13.875V23.8542C19.6118 22.954 24 17.9895 24 12Z"
        fill="white"></path>
    </g>
    <defs>
      <clipPath id="clip0_1223_17413">
        <rect width="24" height="24" fill="white"></rect>
      </clipPath>
    </defs>
  </symbol>
  <symbol fill="none" xmlns="http://www.w3.org/2000/svg" viewBox="0 0 24 24" id="Github">
    <g clip-path="url(#clip0_1223_17445)">
      <path fill-rule="evenodd" clip-rule="evenodd"
        d="M11.9997 0.5C9.15088 0.501478 6.39552 1.51046 4.22626 3.34652C2.057 5.18259 0.615293 7.72601 0.158934 10.522C-0.297425 13.318 0.261316 16.1842 1.73526 18.6082C3.2092 21.0321 5.50223 22.8558 8.20432 23.753C8.80044 23.8636 9.02499 23.4941 9.02499 23.18C9.02499 22.8658 9.01306 21.955 9.00909 20.9592C5.67079 21.6804 4.96537 19.5505 4.96537 19.5505C4.42091 18.1674 3.63403 17.8039 3.63403 17.8039C2.5451 17.065 3.7155 17.0788 3.7155 17.0788C4.92166 17.1637 5.55555 18.3097 5.55555 18.3097C6.6246 20.1333 8.36328 19.6058 9.04684 19.2976C9.15414 18.5251 9.46612 17.9995 9.80989 17.7012C7.14322 17.4008 4.34143 16.3774 4.34143 11.8054C4.3249 10.6197 4.76741 9.47305 5.5774 8.60268C5.4542 8.30236 5.04287 7.08923 5.69463 5.44143C5.69463 5.44143 6.70209 5.12136 8.99519 6.66444C10.9621 6.12962 13.0373 6.12962 15.0041 6.66444C17.2952 5.12136 18.3007 5.44143 18.3007 5.44143C18.9544 7.08528 18.5431 8.29841 18.4199 8.60268C19.2325 9.47319 19.6759 10.6218 19.6579 11.8094C19.6579 16.3912 16.8501 17.4008 14.1795 17.6952C14.6087 18.0667 14.9922 18.7918 14.9922 19.9061C14.9922 21.5026 14.9783 22.7868 14.9783 23.18C14.9783 23.4981 15.1949 23.8695 15.8029 23.753C18.5053 22.8557 20.7986 21.0317 22.2725 18.6073C23.7464 16.183 24.3049 13.3163 23.848 10.5201C23.3911 7.7238 21.9487 5.18035 19.7787 3.34461C17.6087 1.50886 14.8527 0.500541 12.0036 0.5H11.9997Z"
        fill="white"></path>
      <path
        d="M4.54358 17.6326C4.51775 17.6919 4.42237 17.7097 4.34487 17.6682C4.26738 17.6267 4.20976 17.5496 4.23758 17.4884C4.26539 17.4271 4.35879 17.4113 4.43628 17.4528C4.51378 17.4943 4.57339 17.5733 4.54358 17.6326Z"
        fill="white"></path>
      <path
        d="M5.03123 18.1711C4.99008 18.1918 4.943 18.1975 4.89805 18.1874C4.8531 18.1773 4.81308 18.152 4.78483 18.1158C4.70734 18.0328 4.69143 17.9182 4.75104 17.8669C4.81066 17.8155 4.91797 17.8392 4.99546 17.9222C5.07296 18.0052 5.09084 18.1198 5.03123 18.1711Z"
        fill="white"></path>
      <path
        d="M5.50486 18.8578C5.43133 18.9091 5.30614 18.8578 5.23659 18.755C5.21736 18.7366 5.20207 18.7145 5.19162 18.6901C5.18117 18.6656 5.17578 18.6393 5.17578 18.6128C5.17578 18.5862 5.18117 18.5599 5.19162 18.5355C5.20207 18.511 5.21736 18.4889 5.23659 18.4705C5.31011 18.4211 5.43531 18.4705 5.50486 18.5713C5.5744 18.672 5.57639 18.8064 5.50486 18.8578Z"
        fill="white"></path>
      <path
        d="M6.14563 19.5212C6.08005 19.5943 5.94692 19.5746 5.83763 19.4758C5.72834 19.377 5.7025 19.2427 5.76808 19.1715C5.83365 19.1004 5.96679 19.1202 6.08005 19.217C6.19331 19.3138 6.21517 19.4501 6.14563 19.5212Z"
        fill="white"></path>
      <path
        d="M7.04617 19.9084C7.01637 20.0012 6.88124 20.0427 6.74612 20.0032C6.611 19.9637 6.52158 19.8531 6.54741 19.7582C6.57325 19.6634 6.71036 19.6199 6.84747 19.6634C6.98457 19.7069 7.07201 19.8116 7.04617 19.9084Z"
        fill="white"></path>
      <path
        d="M8.02832 19.9747C8.02832 20.0715 7.91705 20.1545 7.77398 20.1565C7.63091 20.1584 7.51367 20.0794 7.51367 19.9826C7.51367 19.8858 7.62494 19.8028 7.76801 19.8008C7.91108 19.7988 8.02832 19.8759 8.02832 19.9747Z"
        fill="white"></path>
      <path
        d="M8.94238 19.8239C8.96027 19.9207 8.86091 20.0215 8.71784 20.0452C8.57477 20.0689 8.44959 20.0116 8.4317 19.9168C8.41382 19.8219 8.51715 19.7192 8.65624 19.6935C8.79534 19.6678 8.9245 19.7271 8.94238 19.8239Z"
        fill="white"></path>
    </g>
    <defs>
      <clipPath id="clip0_1223_17445">
        <rect width="24" height="24" fill="white"></rect>
      </clipPath>
    </defs>
  </symbol>
  <symbol fill="none" xmlns="http://www.w3.org/2000/svg" viewBox="0 0 24 24" id="LinkedIn">
    <g clip-path="url(#clip0_1223_17423)">
      <path
        d="M22.2283 0H1.77167C1.30179 0 0.851161 0.186657 0.518909 0.518909C0.186657 0.851161 0 1.30179 0 1.77167V22.2283C0 22.6982 0.186657 23.1488 0.518909 23.4811C0.851161 23.8133 1.30179 24 1.77167 24H22.2283C22.6982 24 23.1488 23.8133 23.4811 23.4811C23.8133 23.1488 24 22.6982 24 22.2283V1.77167C24 1.30179 23.8133 0.851161 23.4811 0.518909C23.1488 0.186657 22.6982 0 22.2283 0ZM7.15333 20.445H3.545V8.98333H7.15333V20.445ZM5.34667 7.395C4.93736 7.3927 4.53792 7.2692 4.19873 7.04009C3.85955 6.81098 3.59584 6.48653 3.44088 6.10769C3.28591 5.72885 3.24665 5.31259 3.32803 4.91145C3.40941 4.51032 3.6078 4.14228 3.89816 3.85378C4.18851 3.56529 4.55782 3.36927 4.95947 3.29046C5.36112 3.21165 5.77711 3.25359 6.15495 3.41099C6.53279 3.56838 6.85554 3.83417 7.08247 4.17481C7.30939 4.51546 7.43032 4.91569 7.43 5.325C7.43386 5.59903 7.38251 5.87104 7.27901 6.1248C7.17551 6.37857 7.02198 6.6089 6.82757 6.80207C6.63316 6.99523 6.40185 7.14728 6.14742 7.24915C5.893 7.35102 5.62067 7.40062 5.34667 7.395ZM20.4533 20.455H16.8467V14.1933C16.8467 12.3467 16.0617 11.7767 15.0483 11.7767C13.9783 11.7767 12.9283 12.5833 12.9283 14.24V20.455H9.32V8.99167H12.79V10.58H12.8367C13.185 9.875 14.405 8.67 16.2667 8.67C18.28 8.67 20.455 9.865 20.455 13.365L20.4533 20.455Z"
        fill="white"></path>
    </g>
    <defs>
      <clipPath id="clip0_1223_17423">
        <rect width="24" height="24" fill="white"></rect>
      </clipPath>
    </defs>
  </symbol>
  <symbol fill="none" xmlns="http://www.w3.org/2000/svg" viewBox="0 0 24 24" id="Twitter">
    <path
      d="M7.54752 21.7512C16.6042 21.7512 21.5578 14.2479 21.5578 7.74101C21.5578 7.52789 21.5578 7.31573 21.5434 7.10453C22.507 6.40748 23.3389 5.54441 24 4.55573C23.1014 4.95413 22.148 5.21528 21.1718 5.33045C22.1998 4.71514 22.9692 3.74723 23.3366 2.60693C22.3701 3.18054 21.3126 3.58475 20.2099 3.80213C19.4675 3.01271 18.4856 2.48997 17.4162 2.31481C16.3468 2.13966 15.2494 2.32184 14.294 2.83318C13.3385 3.34452 12.5782 4.1565 12.1307 5.14348C11.6833 6.13045 11.5735 7.23739 11.8186 8.29301C9.8609 8.19481 7.94576 7.68604 6.19745 6.79973C4.44915 5.91343 2.90676 4.66939 1.6704 3.14837C1.04073 4.23236 0.847872 5.5156 1.1311 6.73679C1.41433 7.95798 2.15234 9.02532 3.19488 9.72149C2.41123 9.69853 1.64465 9.48712 0.96 9.10517V9.16757C0.960311 10.3044 1.35385 11.4062 2.07387 12.2859C2.79389 13.1657 3.79606 13.7693 4.9104 13.9944C4.18548 14.1922 3.42487 14.2211 2.68704 14.0789C3.00181 15.0573 3.61443 15.9128 4.43924 16.5259C5.26405 17.139 6.25983 17.479 7.28736 17.4985C6.26644 18.3009 5.09731 18.8942 3.84687 19.2444C2.59643 19.5947 1.28921 19.6949 0 19.5394C2.25183 20.9844 4.87192 21.7509 7.54752 21.7474"
      fill="white"></path>
  </symbol>
</svg>